<?xml version="1.0" encoding="iso-8859-1"?>
<!-- Generator: Adobe Illustrator 19.0.0, SVG Export Plug-In . SVG Version: 6.00 Build 0)  -->
<svg version="1.1" id="Layer_1" xmlns="http://www.w3.org/2000/svg" xmlns:xlink="http://www.w3.org/1999/xlink" x="0px" y="0px"
	 viewBox="0 0 512 512" style="enable-background:new 0 0 512 512;" xml:space="preserve">
<g>
	<g>
		<rect x="50.693" y="445.592" width="15.208" height="15.208"/>
	</g>
</g>
<g>
	<g>
		<path d="M58.297,420.246c-18.168,0-32.951,14.782-32.951,32.951s14.782,32.951,32.951,32.951s32.95-14.782,32.95-32.951
			S76.465,420.246,58.297,420.246z M58.297,470.939c-9.783,0-17.743-7.96-17.743-17.743s7.96-17.743,17.743-17.743
			c9.783,0,17.743,7.96,17.743,17.743S68.08,470.939,58.297,470.939z"/>
	</g>
</g>
<g>
	<g>
		<rect x="182.495" y="445.592" width="15.208" height="15.208"/>
	</g>
</g>
<g>
	<g>
		<path d="M190.099,420.246c-18.168,0-32.951,14.782-32.951,32.951s14.782,32.951,32.951,32.951s32.951-14.782,32.951-32.951
			S208.267,420.246,190.099,420.246z M190.099,470.939c-9.783,0-17.743-7.96-17.743-17.743s7.96-17.743,17.743-17.743
			c9.783,0,17.743,7.96,17.743,17.743S199.882,470.939,190.099,470.939z"/>
	</g>
</g>
<g>
	<g>
		<rect x="314.297" y="445.592" width="15.208" height="15.208"/>
	</g>
</g>
<g>
	<g>
		<path d="M321.901,420.246c-18.169,0-32.951,14.782-32.951,32.951s14.781,32.951,32.951,32.951s32.951-14.782,32.951-32.951
			S340.07,420.246,321.901,420.246z M321.901,470.939c-9.783,0-17.743-7.96-17.743-17.743s7.96-17.743,17.743-17.743
			s17.743,7.96,17.743,17.743S331.684,470.939,321.901,470.939z"/>
	</g>
</g>
<g>
	<g>
		<rect x="446.099" y="445.592" width="15.208" height="15.208"/>
	</g>
</g>
<g>
	<g>
		<path d="M470.432,397.357v-38.484c6.401-9.728,10.139-21.357,10.139-33.848c0-27.946-18.846-52.483-45.829-59.669
			c-43.224-11.511-97.453-28.35-139.557-57.439c1.8-2.842,3.094-6.014,3.777-9.388c1.603-7.93-0.313-16.153-5.256-22.558
			l-18.35-23.775c-7.47-9.678-20.446-13.213-31.652-9.138c-2.012-7.721-3.038-15.657-3.038-23.693v-7.941
			c13.815-2.357,24.368-14.409,24.368-28.886s-10.552-26.528-24.368-28.885V22.305l-0.002-0.177
			c-0.21-8.978-9.117-21.621-28.26-21.621c-27.505,0-69.017,2.384-103.038,9.072C64.37,18.425,40.683,33.105,38.863,53.228h-0.128
			v2.535v56.087v49.355c0,11.502-4.528,27.869-9.772,46.822c-0.457,1.654-0.921,3.328-1.386,5.019
			c-0.21,0.76-0.42,1.527-0.631,2.297c-0.036,0.13-0.071,0.26-0.107,0.389c-2.662,9.707-5.431,20.197-7.787,31.16
			c-0.097,0.454-0.194,0.908-0.29,1.364c-0.243,1.155-0.483,2.312-0.716,3.476c-0.206,1.028-0.409,2.059-0.605,3.092
			c-0.112,0.59-0.224,1.179-0.333,1.771c-0.293,1.584-0.575,3.172-0.843,4.767c-0.007,0.045-0.015,0.089-0.023,0.134
			c-4.91,29.357-5.321,60.457,7.683,88.97c2.556,5.619,5.576,10.991,9.054,16.134c0.025,0.038,0.052,0.074,0.077,0.112
			c0.556,0.819,1.122,1.632,1.701,2.439c0.077,0.107,0.155,0.214,0.233,0.321c0.531,0.735,1.071,1.466,1.621,2.191
			c0.125,0.164,0.25,0.328,0.376,0.492c0.51,0.665,1.029,1.326,1.555,1.983c0.168,0.21,0.337,0.419,0.506,0.628
			c0.496,0.609,0.999,1.215,1.509,1.817c0.206,0.243,0.411,0.487,0.62,0.729c0.491,0.571,0.991,1.137,1.494,1.701
			c0.232,0.261,0.461,0.522,0.698,0.782c0.511,0.563,1.033,1.12,1.557,1.677c0.235,0.249,0.464,0.501,0.703,0.75
			c0.01,0.01,0.02,0.021,0.03,0.032l-0.006,14.041C19.571,402.088,0,425.393,0,453.196c0,32.146,26.152,58.297,58.297,58.297
			c29.566,0,54.045-22.131,57.785-50.693h16.232c3.74,28.563,28.219,50.693,57.785,50.693s54.045-22.131,57.785-50.693h16.232
			c3.74,28.563,28.218,50.693,57.785,50.693c29.567,0,54.045-22.131,57.785-50.693h16.232c3.739,28.563,28.218,50.693,57.785,50.693
			c32.146,0,58.297-26.152,58.297-58.297C512,426.864,494.448,404.565,470.432,397.357z M247.065,158.187
			c5.446-3.066,12.433-1.648,16.251,3.3l18.35,23.775c2.247,2.912,3.117,6.65,2.388,10.255c-0.729,3.604-2.982,6.71-6.183,8.521
			l-80.95,45.778c-12.669,7.166-28.811,3.22-36.748-8.981c-4.206-6.465-5.51-14.153-3.672-21.644
			c1.838-7.491,6.552-13.7,13.273-17.485L247.065,158.187z M235.723,68.436c7.776,0,14.103,6.326,14.103,14.103
			s-6.327,14.103-14.103,14.103h-82.63V68.436H235.723z M185.299,16.315l1.118,24.585l15.192-0.691L200.5,15.832
			c3.967-0.077,7.939-0.118,11.903-0.118c9.609,0,12.935,5.201,13.053,6.734v30.779h-72.363v-8.709h-30.416h-15.208H77.053v8.709
			H54.231C58.83,32.519,119.538,19.215,185.299,16.315z M137.885,59.727v45.624h-15.208V59.727H137.885z M107.469,59.727v45.624
			H92.261V59.727H107.469z M53.943,68.436h23.11v28.206h-23.11V68.436z M53.943,161.204v-49.355h23.111v8.709h30.416h15.208h30.416
			v-8.709h72.364v7.516c0,10.545,1.53,20.94,4.509,30.997l-67.653,38.093c-10.27,5.783-17.773,15.665-20.581,27.113
			s-0.734,23.68,5.694,33.561c8.159,12.542,21.91,19.458,35.977,19.458c7.151,0,14.385-1.787,21.006-5.533l79.104-44.734
			c26.721,19.067,58.102,33.131,88.758,43.952c-35.138-0.275-72.426-9.29-103.554-25.739l-7.105,13.446
			c33.749,17.835,74.343,27.494,112.487,27.494c12.403,0,24.538-1.035,36.104-3.129c7.077,2.042,13.983,3.941,20.628,5.71
			c20.333,5.414,34.534,23.908,34.534,44.972c0,10.287-3.36,19.801-9.031,27.514c-0.271,0.369-0.551,0.729-0.831,1.088
			c-0.241,0.309-0.479,0.622-0.727,0.926c-0.497,0.604-1.007,1.195-1.531,1.771c-0.218,0.24-0.448,0.469-0.672,0.705
			c-0.368,0.387-0.738,0.775-1.118,1.149c-0.232,0.228-0.469,0.45-0.707,0.673c-0.414,0.39-0.832,0.774-1.259,1.148
			c-0.197,0.172-0.394,0.345-0.594,0.515c-0.568,0.481-1.145,0.95-1.733,1.402c-0.065,0.051-0.129,0.102-0.195,0.153
			c-5.797,4.402-12.57,7.409-19.757,8.738c-0.077,0.014-0.154,0.027-0.232,0.042c-0.762,0.137-1.531,0.25-2.302,0.35
			c-0.168,0.021-0.337,0.045-0.505,0.065c-0.701,0.082-1.406,0.142-2.112,0.192c-0.2,0.014-0.397,0.034-0.597,0.046
			c-0.88,0.051-1.762,0.08-2.648,0.08H278l-74.216-13.962c-14.095-2.653-28.566-0.286-40.964,6.356
			c6.596-33.644-2.403-71.688-25.197-103.195c-23.208-32.079-56.99-52.646-91.877-56.411
			C50.328,187.604,53.943,172.996,53.943,161.204z M36.262,239.83c0.017-0.076,0.035-0.15,0.053-0.223
			c0.101-0.416,0.204-0.829,0.305-1.243c1.604-6.498,3.317-12.889,5.026-19.12c31.496,2.551,62.409,21.085,83.655,50.452
			c22.803,31.518,30.208,70.058,19.879,101.887H56.543l-1.34-1.396C20.275,332.154,25.942,282.362,36.262,239.83z M58.297,496.285
			c-23.76,0-43.089-19.329-43.089-43.089c0-22.251,16.955-40.616,38.623-42.858l0.151-0.015c0.093-0.009,0.189-0.013,0.282-0.021
			c0.629-0.059,1.258-0.109,1.886-0.141c0.712-0.035,1.427-0.055,2.147-0.055c23.76,0,43.089,19.329,43.089,43.089
			C101.386,476.955,82.057,496.285,58.297,496.285z M190.099,496.285c-23.76,0-43.089-19.329-43.089-43.089
			s19.329-43.089,43.089-43.089s43.089,19.329,43.089,43.089S213.859,496.285,190.099,496.285z M321.901,496.285
			c-23.76,0-43.089-19.329-43.089-43.089s19.329-43.089,43.089-43.089s43.089,19.329,43.089,43.089S345.661,496.285,321.901,496.285
			z M409.162,415.646c-0.248,0.294-0.495,0.589-0.737,0.888c-0.328,0.404-0.649,0.816-0.966,1.23
			c-0.232,0.302-0.464,0.602-0.689,0.908c-0.316,0.428-0.622,0.864-0.927,1.302c-0.211,0.303-0.425,0.603-0.631,0.91
			c-0.309,0.462-0.606,0.935-0.902,1.406c-0.184,0.293-0.373,0.582-0.552,0.878c-0.32,0.531-0.626,1.072-0.929,1.614
			c-0.139,0.247-0.285,0.49-0.42,0.739c-0.432,0.797-0.848,1.604-1.243,2.423c-0.01,0.02-0.018,0.041-0.027,0.061
			c-0.383,0.797-0.748,1.604-1.096,2.42c-0.12,0.28-0.226,0.566-0.341,0.849c-0.229,0.562-0.457,1.123-0.669,1.693
			c-0.127,0.341-0.241,0.687-0.361,1.031c-0.182,0.52-0.364,1.04-0.531,1.567c-0.119,0.372-0.226,0.749-0.338,1.124
			c-0.15,0.507-0.298,1.015-0.435,1.529c-0.104,0.392-0.201,0.788-0.296,1.183c-0.123,0.506-0.242,1.012-0.353,1.523
			c-0.087,0.406-0.168,0.812-0.246,1.221c-0.098,0.51-0.191,1.022-0.275,1.536c-0.068,0.414-0.133,0.829-0.193,1.246
			c-0.031,0.223-0.074,0.444-0.103,0.668h-16.196c-0.029-0.224-0.071-0.444-0.103-0.668c-0.06-0.417-0.124-0.832-0.193-1.246
			c-0.085-0.514-0.176-1.026-0.275-1.536c-0.079-0.409-0.159-0.815-0.246-1.221c-0.109-0.511-0.229-1.017-0.353-1.523
			c-0.096-0.395-0.192-0.791-0.296-1.183c-0.137-0.513-0.285-1.021-0.435-1.529c-0.111-0.375-0.219-0.752-0.338-1.124
			c-0.167-0.527-0.349-1.047-0.531-1.567c-0.121-0.344-0.234-0.69-0.361-1.031c-0.212-0.571-0.44-1.131-0.669-1.693
			c-0.115-0.282-0.222-0.569-0.341-0.849c-0.348-0.816-0.713-1.623-1.096-2.42c-0.01-0.02-0.018-0.041-0.027-0.061
			c-0.395-0.819-0.811-1.626-1.243-2.423c-0.135-0.249-0.281-0.492-0.42-0.739c-0.304-0.541-0.608-1.083-0.929-1.614
			c-0.178-0.296-0.368-0.585-0.552-0.878c-0.296-0.471-0.593-0.943-0.902-1.406c-0.206-0.307-0.419-0.607-0.631-0.91
			c-0.304-0.437-0.61-0.873-0.927-1.302c-0.226-0.306-0.458-0.607-0.689-0.908c-0.317-0.414-0.639-0.824-0.966-1.23
			c-0.242-0.299-0.489-0.594-0.737-0.888c-0.334-0.395-0.672-0.787-1.016-1.172c-0.256-0.288-0.515-0.574-0.778-0.857
			c-0.353-0.38-0.711-0.755-1.074-1.125c-0.267-0.274-0.534-0.545-0.806-0.814c-0.375-0.37-0.758-0.731-1.144-1.091
			c-0.273-0.254-0.543-0.51-0.821-0.759c-0.404-0.363-0.818-0.716-1.233-1.069c-0.271-0.23-0.538-0.464-0.814-0.689
			c-0.451-0.369-0.912-0.725-1.375-1.081c-0.25-0.193-0.497-0.391-0.75-0.581c-0.563-0.419-1.138-0.822-1.715-1.221
			c-0.163-0.112-0.322-0.232-0.487-0.344c-0.75-0.506-1.513-0.996-2.286-1.467c-0.162-0.099-0.331-0.19-0.495-0.287
			c-0.611-0.364-1.227-0.724-1.852-1.067c-0.281-0.153-0.568-0.296-0.851-0.445c-0.518-0.273-1.035-0.544-1.562-0.801
			c-0.326-0.159-0.659-0.308-0.989-0.461c-0.495-0.23-0.989-0.458-1.49-0.675c-0.352-0.152-0.708-0.294-1.063-0.439
			c-0.491-0.2-0.982-0.397-1.479-0.584c-0.368-0.139-0.739-0.27-1.11-0.401c-0.494-0.174-0.99-0.344-1.489-0.505
			c-0.381-0.123-0.763-0.241-1.148-0.357c-0.502-0.15-1.006-0.293-1.513-0.431c-0.388-0.105-0.777-0.208-1.167-0.305
			c-0.514-0.128-1.032-0.245-1.551-0.359c-0.391-0.085-0.782-0.172-1.175-0.249c-0.532-0.105-1.07-0.198-1.607-0.288
			c-0.387-0.065-0.773-0.134-1.162-0.192c-0.564-0.083-1.133-0.15-1.701-0.217c-0.369-0.044-0.736-0.093-1.108-0.13
			c-0.631-0.062-1.266-0.103-1.903-0.145c-0.315-0.02-0.629-0.051-0.946-0.066c-0.955-0.047-1.915-0.073-2.881-0.073
			c-0.966,0-1.926,0.026-2.881,0.073c-0.317,0.015-0.63,0.046-0.946,0.066c-0.637,0.042-1.272,0.083-1.903,0.145
			c-0.371,0.036-0.738,0.086-1.108,0.13c-0.569,0.067-1.138,0.134-1.701,0.217c-0.389,0.058-0.776,0.127-1.162,0.192
			c-0.537,0.09-1.075,0.182-1.607,0.288c-0.394,0.078-0.785,0.164-1.175,0.249c-0.519,0.114-1.037,0.231-1.551,0.359
			c-0.391,0.097-0.78,0.2-1.167,0.305c-0.507,0.137-1.012,0.28-1.513,0.431c-0.384,0.116-0.768,0.233-1.148,0.357
			c-0.5,0.161-0.996,0.331-1.489,0.505c-0.371,0.131-0.742,0.263-1.11,0.401c-0.497,0.187-0.99,0.384-1.479,0.584
			c-0.355,0.145-0.712,0.288-1.063,0.439c-0.502,0.216-0.996,0.445-1.49,0.675c-0.329,0.153-0.662,0.302-0.988,0.461
			c-0.526,0.256-1.044,0.528-1.562,0.801c-0.283,0.149-0.571,0.291-0.852,0.445c-0.626,0.343-1.241,0.703-1.852,1.067
			c-0.163,0.097-0.331,0.188-0.495,0.287c-0.775,0.471-1.536,0.961-2.286,1.467c-0.164,0.111-0.323,0.231-0.487,0.344
			c-0.578,0.398-1.153,0.802-1.715,1.221c-0.253,0.189-0.5,0.387-0.75,0.581c-0.462,0.356-0.924,0.712-1.375,1.081
			c-0.275,0.225-0.542,0.459-0.814,0.689c-0.415,0.352-0.828,0.705-1.233,1.069c-0.278,0.249-0.548,0.505-0.821,0.759
			c-0.385,0.359-0.768,0.721-1.144,1.091c-0.272,0.268-0.539,0.54-0.806,0.814c-0.362,0.371-0.721,0.745-1.074,1.125
			c-0.263,0.283-0.521,0.569-0.778,0.857c-0.344,0.386-0.682,0.778-1.016,1.172c-0.248,0.294-0.495,0.589-0.737,0.888
			c-0.328,0.404-0.649,0.816-0.966,1.23c-0.232,0.302-0.464,0.602-0.689,0.908c-0.316,0.428-0.622,0.864-0.927,1.302
			c-0.211,0.303-0.425,0.603-0.63,0.91c-0.309,0.462-0.606,0.935-0.902,1.406c-0.184,0.293-0.373,0.582-0.552,0.878
			c-0.32,0.531-0.626,1.072-0.929,1.614c-0.139,0.247-0.285,0.49-0.42,0.739c-0.432,0.797-0.848,1.604-1.243,2.423
			c-0.01,0.02-0.018,0.041-0.027,0.061c-0.383,0.797-0.748,1.604-1.096,2.42c-0.12,0.28-0.226,0.566-0.341,0.849
			c-0.229,0.562-0.457,1.123-0.669,1.693c-0.127,0.341-0.241,0.687-0.361,1.031c-0.182,0.52-0.364,1.04-0.531,1.567
			c-0.119,0.372-0.226,0.749-0.338,1.124c-0.15,0.507-0.298,1.015-0.435,1.529c-0.104,0.392-0.2,0.788-0.296,1.183
			c-0.123,0.506-0.242,1.012-0.353,1.523c-0.087,0.406-0.168,0.812-0.246,1.221c-0.098,0.51-0.191,1.022-0.275,1.536
			c-0.068,0.414-0.133,0.829-0.193,1.246c-0.031,0.223-0.074,0.444-0.103,0.668H247.91c-0.03-0.23-0.073-0.456-0.105-0.686
			c-0.058-0.404-0.121-0.806-0.187-1.207c-0.087-0.528-0.181-1.054-0.283-1.578c-0.076-0.395-0.155-0.79-0.239-1.182
			c-0.113-0.526-0.235-1.047-0.363-1.568c-0.093-0.38-0.185-0.761-0.286-1.14c-0.141-0.529-0.293-1.053-0.448-1.577
			c-0.107-0.361-0.211-0.723-0.324-1.081c-0.173-0.544-0.361-1.083-0.549-1.621c-0.115-0.326-0.223-0.655-0.343-0.977
			c-0.221-0.596-0.459-1.183-0.699-1.769c-0.105-0.258-0.203-0.519-0.311-0.776c-0.716-1.682-1.509-3.323-2.374-4.921
			c-0.122-0.225-0.253-0.443-0.378-0.666c-0.316-0.566-0.636-1.131-0.97-1.685c-0.17-0.283-0.351-0.558-0.526-0.837
			c-0.305-0.486-0.61-0.971-0.929-1.447c-0.199-0.297-0.406-0.588-0.609-0.881c-0.311-0.447-0.625-0.893-0.948-1.331
			c-0.22-0.298-0.446-0.591-0.671-0.884c-0.323-0.422-0.651-0.841-0.985-1.253c-0.237-0.293-0.48-0.582-0.723-0.87
			c-0.339-0.401-0.682-0.799-1.032-1.19c-0.252-0.283-0.506-0.564-0.763-0.841c-0.357-0.385-0.721-0.764-1.088-1.141
			c-0.263-0.269-0.526-0.537-0.794-0.801c-0.379-0.374-0.766-0.739-1.156-1.102c-0.269-0.25-0.535-0.503-0.809-0.748
			c-0.41-0.367-0.827-0.725-1.247-1.081c-0.267-0.226-0.529-0.455-0.8-0.677c-0.456-0.374-0.924-0.734-1.391-1.094
			c-0.245-0.189-0.487-0.383-0.735-0.569c-0.571-0.425-1.154-0.834-1.74-1.238c-0.155-0.107-0.306-0.221-0.462-0.326
			c-0.751-0.507-1.515-0.998-2.29-1.47c-0.155-0.095-0.316-0.182-0.473-0.275c-0.618-0.369-1.241-0.732-1.874-1.079
			c-0.278-0.152-0.563-0.293-0.845-0.441c-0.52-0.274-1.039-0.546-1.568-0.805c-0.325-0.159-0.657-0.307-0.985-0.46
			c-0.495-0.23-0.991-0.459-1.492-0.676c-0.351-0.151-0.707-0.294-1.06-0.438c-0.492-0.201-0.983-0.398-1.482-0.585
			c-0.367-0.138-0.738-0.27-1.109-0.4c-0.495-0.174-0.991-0.344-1.49-0.506c-0.38-0.123-0.762-0.241-1.147-0.356
			c-0.502-0.15-1.007-0.294-1.514-0.431c-0.387-0.104-0.776-0.208-1.167-0.304c-0.514-0.128-1.032-0.245-1.551-0.359
			c-0.391-0.085-0.782-0.172-1.175-0.249c-0.532-0.105-1.07-0.198-1.607-0.288c-0.387-0.065-0.773-0.134-1.162-0.192
			c-0.564-0.083-1.133-0.15-1.701-0.217c-0.369-0.044-0.737-0.093-1.108-0.13c-0.631-0.062-1.266-0.103-1.902-0.145
			c-0.315-0.02-0.629-0.051-0.946-0.066c-0.955-0.047-1.915-0.073-2.881-0.073s-1.926,0.026-2.881,0.073
			c-0.317,0.015-0.63,0.046-0.946,0.066c-0.636,0.042-1.271,0.083-1.902,0.145c-0.371,0.036-0.739,0.086-1.108,0.13
			c-0.569,0.067-1.138,0.134-1.701,0.217c-0.389,0.058-0.775,0.126-1.162,0.192c-0.537,0.09-1.075,0.182-1.607,0.288
			c-0.394,0.078-0.785,0.164-1.175,0.249c-0.519,0.114-1.037,0.231-1.551,0.359c-0.39,0.097-0.779,0.2-1.167,0.304
			c-0.507,0.137-1.012,0.28-1.514,0.431c-0.384,0.116-0.766,0.233-1.147,0.356c-0.5,0.161-0.997,0.331-1.49,0.506
			c-0.371,0.131-0.741,0.263-1.109,0.4c-0.498,0.188-0.991,0.385-1.482,0.585c-0.355,0.145-0.71,0.287-1.06,0.438
			c-0.503,0.217-0.998,0.446-1.492,0.676c-0.328,0.153-0.66,0.301-0.985,0.46c-0.529,0.259-1.048,0.531-1.568,0.805
			c-0.281,0.148-0.566,0.289-0.845,0.441c-0.633,0.347-1.255,0.71-1.874,1.079c-0.156,0.093-0.317,0.179-0.474,0.275
			c-0.776,0.472-1.539,0.962-2.29,1.47c-0.156,0.105-0.307,0.219-0.462,0.326c-0.587,0.404-1.169,0.813-1.74,1.238
			c-0.248,0.186-0.49,0.38-0.735,0.569c-0.467,0.36-0.935,0.721-1.391,1.094c-0.271,0.221-0.533,0.451-0.8,0.677
			c-0.42,0.356-0.837,0.713-1.247,1.081c-0.274,0.245-0.54,0.498-0.809,0.748c-0.389,0.363-0.777,0.729-1.156,1.102
			c-0.268,0.264-0.531,0.532-0.794,0.801c-0.367,0.376-0.731,0.755-1.088,1.141c-0.258,0.278-0.511,0.559-0.763,0.841
			c-0.35,0.392-0.692,0.789-1.032,1.19c-0.243,0.288-0.485,0.577-0.723,0.87c-0.335,0.413-0.662,0.831-0.985,1.253
			c-0.225,0.294-0.451,0.586-0.671,0.884c-0.323,0.438-0.637,0.884-0.948,1.331c-0.204,0.293-0.411,0.584-0.609,0.881
			c-0.318,0.477-0.624,0.961-0.929,1.447c-0.175,0.28-0.356,0.555-0.526,0.837c-0.335,0.555-0.654,1.119-0.97,1.685
			c-0.125,0.223-0.256,0.441-0.378,0.666c-0.866,1.597-1.659,3.238-2.374,4.921c-0.108,0.256-0.206,0.517-0.311,0.776
			c-0.239,0.586-0.478,1.173-0.699,1.769c-0.12,0.323-0.228,0.652-0.343,0.977c-0.189,0.538-0.376,1.077-0.549,1.621
			c-0.114,0.358-0.217,0.72-0.324,1.081c-0.155,0.523-0.308,1.047-0.448,1.577c-0.1,0.378-0.193,0.758-0.286,1.14
			c-0.127,0.52-0.249,1.042-0.363,1.568c-0.084,0.392-0.162,0.787-0.239,1.182c-0.101,0.523-0.196,1.049-0.283,1.578
			c-0.066,0.401-0.129,0.804-0.187,1.207c-0.032,0.229-0.076,0.455-0.105,0.686h-16.195c-0.031-0.236-0.074-0.468-0.108-0.704
			c-0.055-0.381-0.114-0.76-0.175-1.139c-0.089-0.545-0.188-1.087-0.291-1.627c-0.071-0.369-0.143-0.738-0.221-1.105
			c-0.118-0.552-0.247-1.099-0.38-1.646c-0.084-0.345-0.165-0.69-0.255-1.033c-0.155-0.586-0.324-1.167-0.497-1.746
			c-0.087-0.293-0.167-0.589-0.26-0.88c-0.236-0.749-0.49-1.491-0.755-2.227c-0.041-0.114-0.076-0.229-0.118-0.342
			c-0.314-0.855-0.649-1.699-1.002-2.536c-0.089-0.211-0.188-0.416-0.279-0.626c-0.269-0.616-0.542-1.231-0.831-1.836
			c-0.136-0.284-0.281-0.563-0.421-0.845c-0.261-0.523-0.524-1.045-0.8-1.559c-0.162-0.302-0.331-0.599-0.497-0.897
			c-0.272-0.486-0.547-0.968-0.831-1.445c-0.18-0.302-0.365-0.601-0.551-0.9c-0.29-0.466-0.587-0.929-0.889-1.386
			c-0.193-0.291-0.386-0.582-0.584-0.869c-0.317-0.461-0.643-0.916-0.972-1.367c-0.197-0.27-0.391-0.539-0.593-0.805
			c-0.359-0.474-0.729-0.939-1.102-1.401c-0.186-0.23-0.367-0.464-0.556-0.691c-0.451-0.542-0.916-1.073-1.385-1.599
			c-0.122-0.136-0.238-0.277-0.362-0.413c-0.607-0.666-1.229-1.319-1.865-1.957c-0.072-0.072-0.148-0.141-0.221-0.213
			c-0.558-0.553-1.125-1.096-1.705-1.626c-0.204-0.186-0.414-0.364-0.619-0.547c-0.458-0.408-0.92-0.812-1.39-1.204
			c-0.249-0.208-0.504-0.41-0.756-0.612c-0.442-0.356-0.886-0.709-1.338-1.052c-0.273-0.207-0.549-0.41-0.825-0.612
			c-0.446-0.328-0.897-0.649-1.354-0.963c-0.286-0.198-0.574-0.392-0.863-0.585c-0.463-0.307-0.932-0.606-1.403-0.9
			c-0.29-0.18-0.579-0.362-0.872-0.537c-0.495-0.296-0.997-0.582-1.501-0.864c-0.279-0.156-0.556-0.316-0.837-0.468
			c-0.563-0.303-1.135-0.591-1.708-0.876c-0.23-0.115-0.457-0.235-0.689-0.347c-1.624-0.78-3.291-1.486-4.994-2.115
			c-0.254-0.094-0.513-0.177-0.768-0.268c-0.597-0.211-1.195-0.419-1.801-0.61c-0.324-0.102-0.653-0.196-0.98-0.293
			c-0.547-0.162-1.094-0.321-1.647-0.468c-0.355-0.094-0.712-0.18-1.07-0.269c-0.534-0.131-1.071-0.256-1.611-0.373
			c-0.372-0.08-0.744-0.155-1.119-0.228c-0.536-0.104-1.077-0.201-1.618-0.29c-0.378-0.063-0.755-0.124-1.135-0.18
			c-0.554-0.08-1.11-0.148-1.669-0.213c-0.372-0.043-0.744-0.089-1.118-0.125c-0.593-0.057-1.19-0.097-1.788-0.137
			c-0.344-0.022-0.685-0.052-1.031-0.068c-0.075-0.004-0.149-0.011-0.224-0.015l0.003-8.167h94.852h1.921l2.201-2.092
			c10.931-10.385,26.305-14.92,41.121-12.133l75.61,14.223h142.226c0.948,0,1.893-0.028,2.836-0.072
			c0.366-0.016,0.729-0.044,1.093-0.066c0.549-0.035,1.097-0.075,1.643-0.126c0.474-0.043,0.946-0.09,1.417-0.143
			c0.371-0.043,0.741-0.092,1.11-0.142c10.18-1.34,19.583-5.165,27.583-10.85c0.243-0.172,0.493-0.338,0.734-0.514v20.044
			c-0.508-0.014-1.015-0.021-1.521-0.021c-0.967,0-1.927,0.026-2.882,0.073c-0.317,0.015-0.63,0.046-0.946,0.066
			c-0.636,0.042-1.272,0.083-1.903,0.145c-0.371,0.036-0.738,0.086-1.108,0.13c-0.569,0.067-1.138,0.134-1.701,0.217
			c-0.389,0.058-0.776,0.127-1.162,0.192c-0.537,0.09-1.075,0.182-1.607,0.288c-0.394,0.078-0.785,0.164-1.175,0.249
			c-0.519,0.114-1.037,0.231-1.551,0.359c-0.391,0.097-0.78,0.2-1.167,0.305c-0.507,0.137-1.012,0.28-1.513,0.431
			c-0.384,0.116-0.768,0.233-1.148,0.357c-0.5,0.161-0.996,0.331-1.489,0.505c-0.371,0.131-0.742,0.263-1.11,0.401
			c-0.497,0.187-0.99,0.384-1.479,0.584c-0.355,0.145-0.712,0.288-1.063,0.439c-0.502,0.216-0.996,0.445-1.49,0.675
			c-0.33,0.153-0.662,0.302-0.989,0.461c-0.526,0.256-1.044,0.528-1.562,0.801c-0.283,0.149-0.571,0.291-0.851,0.445
			c-0.626,0.343-1.241,0.703-1.852,1.067c-0.163,0.097-0.332,0.188-0.495,0.287c-0.775,0.471-1.536,0.961-2.286,1.467
			c-0.164,0.111-0.323,0.231-0.487,0.344c-0.578,0.398-1.153,0.802-1.715,1.221c-0.253,0.189-0.5,0.387-0.75,0.581
			c-0.462,0.356-0.924,0.712-1.375,1.081c-0.275,0.225-0.543,0.459-0.814,0.689c-0.415,0.352-0.828,0.705-1.233,1.069
			c-0.278,0.249-0.548,0.505-0.821,0.759c-0.385,0.359-0.768,0.721-1.144,1.091c-0.273,0.268-0.539,0.54-0.806,0.814
			c-0.362,0.371-0.721,0.745-1.074,1.125c-0.263,0.283-0.521,0.569-0.778,0.857C409.834,414.86,409.496,415.251,409.162,415.646z
			 M453.703,496.285c-23.76,0-43.089-19.329-43.089-43.089s19.329-43.089,43.089-43.089c0.677,0,1.349,0.02,2.019,0.052
			c0.459,0.022,0.92,0.058,1.381,0.095c0.185,0.014,0.371,0.025,0.556,0.043c0.574,0.054,1.148,0.12,1.723,0.197
			c0.065,0.008,0.13,0.016,0.194,0.024c0.591,0.082,1.182,0.176,1.773,0.283c0.32,0.058,0.643,0.107,0.96,0.172l0.073,0.013
			c19.614,4.025,34.411,21.422,34.411,42.21C496.792,476.956,477.463,496.285,453.703,496.285z"/>
	</g>
</g>
<g>
	<g>
		<path d="M453.703,420.246c-18.169,0-32.951,14.782-32.951,32.951s14.781,32.951,32.951,32.951
			c18.169,0,32.951-14.782,32.951-32.951S471.872,420.246,453.703,420.246z M453.703,470.939c-9.783,0-17.743-7.96-17.743-17.743
			s7.96-17.743,17.743-17.743c9.783,0,17.743,7.96,17.743,17.743S463.486,470.939,453.703,470.939z"/>
	</g>
</g>
<g>
	<g>
		<rect x="372.594" y="337.109" width="15.208" height="15.208"/>
	</g>
</g>
<g>
	<g>
		<rect x="403.01" y="337.109" width="15.208" height="15.208"/>
	</g>
</g>
<g>
	<g>
		<rect x="342.178" y="337.109" width="15.208" height="15.208"/>
	</g>
</g>
<g>
	<g>
		<path d="M203.141,123.835l-15.145,1.375c0.971,10.703,2.197,20.531,3.64,29.212l15.001-2.493
			C205.255,143.618,204.079,134.165,203.141,123.835z"/>
	</g>
</g>
<g>
</g>
<g>
</g>
<g>
</g>
<g>
</g>
<g>
</g>
<g>
</g>
<g>
</g>
<g>
</g>
<g>
</g>
<g>
</g>
<g>
</g>
<g>
</g>
<g>
</g>
<g>
</g>
<g>
</g>
</svg>
